<svg id="Calque_1" data-name="Calque 1" xmlns="http://www.w3.org/2000/svg" xmlns:xlink="http://www.w3.org/1999/xlink" viewBox="0 0 43.8 43.8"><defs><style>.cls-1{fill:#494551;}.cls-2{fill:url(#Dégradé_sans_nom_14);}.cls-3{fill:url(#Dégradé_sans_nom_9);}</style><linearGradient id="Dégradé_sans_nom_14" x1="14.51" y1="17.75" x2="46.34" y2="44.88" gradientUnits="userSpaceOnUse"><stop offset="0"/><stop offset="0.08" stop-color="#0a090b"/><stop offset="0.32" stop-color="#252329"/><stop offset="0.56" stop-color="#39363f"/><stop offset="0.79" stop-color="#45414d"/><stop offset="1" stop-color="#494551"/></linearGradient><linearGradient id="Dégradé_sans_nom_9" x1="21.51" y1="30" x2="38.49" y2="30" gradientUnits="userSpaceOnUse"><stop offset="0" stop-color="#3498db"/><stop offset="1" stop-color="#81c689"/></linearGradient></defs><title>logo</title><rect class="cls-1" width="43.8" height="43.8" rx="18.36" ry="18.36"/><path class="cls-2" d="M26.48,21.2,23.69,28.6,34.47,39.31,32.88,40.9l-6.8-6.8-2.8,4.61,13,13A18.61,18.61,0,0,0,51.68,36.13L37.46,21.91Z" transform="translate(-8.1 -8.1)"/><path class="cls-3" d="M33.91,35.26a2.34,2.34,0,0,0-.91-2,12,12,0,0,0-3.28-1.46A23.26,23.26,0,0,1,26,30.3q-3.77-2-3.77-5.49a5.34,5.34,0,0,1,1-3.2,6.6,6.6,0,0,1,2.9-2.2,10.93,10.93,0,0,1,4.25-.79,10,10,0,0,1,4.23.86,6.73,6.73,0,0,1,2.88,2.42,6.34,6.34,0,0,1,1,3.56H33.93a3,3,0,0,0-1-2.36,3.94,3.94,0,0,0-2.69-.84,4.21,4.21,0,0,0-2.6.71,2.23,2.23,0,0,0-.93,1.86,2.14,2.14,0,0,0,1.09,1.81A12.27,12.27,0,0,0,31,28a13.83,13.83,0,0,1,5.67,2.9,5.78,5.78,0,0,1,1.78,4.32,5.33,5.33,0,0,1-2.17,4.51,9.52,9.52,0,0,1-5.85,1.63,11.3,11.3,0,0,1-4.65-.94,7.36,7.36,0,0,1-3.2-2.56,6.56,6.56,0,0,1-1.1-3.77h4.58q0,3.66,4.38,3.66A4.26,4.26,0,0,0,33,37.11,2.15,2.15,0,0,0,33.91,35.26Z" transform="translate(-8.1 -8.1)"/></svg>